# xmcd
#
# Track frame offsets:
#	150
#	2410
#	19867
#	36443
#	38724
#	54540
#	55804
#	72084
#	88667
#	105685
#	119271
#	120807
#	136519
#	150096
#	167054
#	182104
#	201233
#	219748
#
# Disc length: 3163 seconds
#
# Revision: 0
# Processed by: cddbd v1.5.1PL0 Copyright (c) Steve Scherf et al.
# Submitted via: dBpowerAMP V4.0
#
DISCID=e40c5912
DTITLE=Warren G - Take A Look Over Your Shoulder (UK)
DYEAR=1900
DGENRE=Rap
TTITLE0=Star Trek Intro
TTITLE1=Annie Mae
TTITLE2=Smokin' Me Out
TTITLE3=Ricky In Church
TTITLE4=Reality
TTITLE5=Ricky And G-Child
TTITLE6=Young Fun
TTITLE7=What We Go Through
TTITLE8=We Brings Heat
TTITLE9=Transformers
TTITLE10=Reel Tight Intro
TTITLE11=Relax Ya Mind
TTITLE12=To All D.J.'s
TTITLE13=Back Up
TTITLE14=Can You Feel It
TTITLE15=What's Love Got To Do
TTITLE16=I Shot The Sheriff
TTITLE17=What's Love Got To Do (Remix)
EXTD=
EXTT0=
EXTT1=
EXTT2=
EXTT3=
EXTT4=
EXTT5=
EXTT6=
EXTT7=
EXTT8=
EXTT9=
EXTT10=
EXTT11=
EXTT12=
EXTT13=
EXTT14=
EXTT15=
EXTT16=
EXTT17=
PLAYORDER=
